<?xml version="1.0" encoding="UTF-8"?>
<svg version="1.1" xmlns="http://www.w3.org/2000/svg" width="512" height="512">
<path d="M0 0 C168.96 0 337.92 0 512 0 C512 168.96 512 337.92 512 512 C343.04 512 174.08 512 0 512 C0 343.04 0 174.08 0 0 Z " fill="#000000" transform="translate(0,0)"/>
<path d="M0 0 C4.76878435 1.99421891 6.14862462 4.92664845 8.4375 9.4375 C10.12937206 13.76654002 11.41976609 18.21089456 12.75390625 22.66015625 C15.38467172 31.19991321 15.38467172 31.19991321 20.4375 38.4375 C21.7575 38.4375 23.0775 38.4375 24.4375 38.4375 C24.90929687 37.27734375 24.90929687 37.27734375 25.390625 36.09375 C26.71722185 32.8651649 28.07247683 29.65001142 29.4375 26.4375 C29.78296875 25.59832031 30.1284375 24.75914062 30.484375 23.89453125 C31.87410249 20.76764439 32.80682308 18.77709526 35.875 17.125 C39.74543608 17.5970044 40.98825527 19.4858461 43.4375 22.4375 C47.05530745 27.11936846 48.79358807 31.8332548 50.4375 37.4375 C53.99631147 36.47959163 55.21955824 35.77883178 57.23828125 32.6171875 C57.73714844 31.52664062 58.23601562 30.43609375 58.75 29.3125 C59.26175781 28.21679688 59.77351562 27.12109375 60.30078125 25.9921875 C60.86345703 24.72761719 60.86345703 24.72761719 61.4375 23.4375 C64.4375 24.4375 64.4375 24.4375 65.49658203 26.26342773 C65.80966309 27.04145752 66.12274414 27.8194873 66.4453125 28.62109375 C66.79207031 29.46607422 67.13882813 30.31105469 67.49609375 31.18164062 C67.84800781 32.07044922 68.19992187 32.95925781 68.5625 33.875 C69.27322263 35.62378526 69.98415035 37.37248718 70.6953125 39.12109375 C71.0061377 39.90025146 71.31696289 40.67940918 71.63720703 41.48217773 C72.421191 43.46745533 72.421191 43.46745533 73.4375 45.4375 C75.30803397 45.30715506 75.30803397 45.30715506 77.4375 44.4375 C78.365625 43.2 78.365625 43.2 79.3125 41.9375 C81.4375 39.4375 81.4375 39.4375 84.375 38.3125 C87.4375 38.4375 87.4375 38.4375 90.25 40.75 C93.26944996 44.45960995 93.72145279 46.51978076 93.66015625 51.3359375 C93.32343684 54.51409614 92.14978981 56.77393807 90.4375 59.4375 C87.4375 61.4375 87.4375 61.4375 84.5625 61.4375 C81.30528411 60.39519091 80.74797395 59.92830205 78.75 57.375 C77.986875 56.405625 77.22375 55.43625 76.4375 54.4375 C75.4475 54.4375 74.4575 54.4375 73.4375 54.4375 C72.14427968 57.33264194 70.85320259 60.22873484 69.5625 63.125 C69.19769531 63.94162109 68.83289063 64.75824219 68.45703125 65.59960938 C66.71134779 69.51946222 64.98653618 73.4344644 63.4375 77.4375 C62.7775 77.4375 62.1175 77.4375 61.4375 77.4375 C60.93089844 76.17292969 60.93089844 76.17292969 60.4140625 74.8828125 C59.96804688 73.78710938 59.52203125 72.69140625 59.0625 71.5625 C58.62164062 70.47195312 58.18078125 69.38140625 57.7265625 68.2578125 C56.60698662 65.37420638 56.60698662 65.37420638 54.4375 63.4375 C52.36875966 62.7949765 52.36875966 62.7949765 50.4375 62.4375 C50.29054688 62.98277344 50.14359375 63.52804688 49.9921875 64.08984375 C47.87031092 71.22373914 44.78154445 78.20813703 38.4375 82.4375 C36 82.5625 36 82.5625 33.4375 81.4375 C31.6730646 78.95827508 30.58119036 76.24640353 29.4375 73.4375 C29.07398438 72.56351562 28.71046875 71.68953125 28.3359375 70.7890625 C26.93973909 67.36385634 25.6073233 63.94696991 24.4375 60.4375 C20.96786918 61.37620149 19.6537744 62.12133615 17.59375 65.1328125 C17.0471875 66.26460938 16.500625 67.39640625 15.9375 68.5625 C15.64125732 69.17416016 15.34501465 69.78582031 15.03979492 70.41601562 C12.55017435 75.75197451 10.74714314 81.25150256 9.2109375 86.93017578 C7.96653055 91.37983894 6.30710519 94.80845299 3.4375 98.4375 C0.0625 99.75 0.0625 99.75 -3.5625 99.4375 C-8.88353178 95.12452733 -11.53499113 88.81669014 -14.1875 82.6875 C-14.91952851 81.00076297 -15.66138432 79.31824924 -16.4140625 77.640625 C-16.89093506 76.53702637 -16.89093506 76.53702637 -17.37744141 75.41113281 C-18.79436742 73.0513409 -20.23788297 71.88920189 -22.5625 70.4375 C-25.64105426 69.80779572 -27.59422547 69.90536637 -30.375 71.43359375 C-35.55735978 75.12184577 -39.89334405 79.67055267 -44.265625 84.265625 C-47.06034269 86.90824921 -49.07540979 88.35923209 -52.9375 88.5625 C-59.24408252 85.85967892 -61.67690091 79.42594562 -64.12475586 73.40478516 C-64.71147518 71.91842954 -65.28903349 70.42842714 -65.85766602 68.93505859 C-67.72327398 64.12609892 -69.91322545 60.27945039 -72.875 56.0625 C-75.7565184 51.25133557 -75.7565184 51.25133557 -74.98046875 47.99609375 C-73.5625 45.5 -73.5625 45.5 -71.72265625 42.8359375 C-68.20063353 37.6776995 -66.20597946 31.64289397 -63.90039062 25.87329102 C-59.00649139 14.02703449 -59.00649139 14.02703449 -53.125 11.3125 C-47.17625629 11.60268262 -42.88545989 16.93767707 -39 21 C-33.22925987 27.09573379 -33.22925987 27.09573379 -25.5625 29.9375 C-21.41861505 29.24685251 -20.28168644 27.61749514 -17.5625 24.4375 C-15.66464854 21.03209169 -14.2070256 17.43797595 -12.68945312 13.8515625 C-6.94447787 0.85283062 -6.94447787 0.85283062 0 0 Z " fill="#3DCAA4" transform="translate(247.5625,149.5625)"/>
<path d="M0 0 C15.6482379 12.80995398 25.92399651 29.98748325 29.43359375 49.9921875 C28.77359375 49.9921875 28.11359375 49.9921875 27.43359375 49.9921875 C26.87671875 48.3215625 26.87671875 48.3215625 26.30859375 46.6171875 C24.69523908 42.3199344 22.51666955 38.57879315 20.09375 34.69140625 C18.34977112 31.85590177 16.74210268 28.96197266 15.12109375 26.0546875 C5.82511753 10.20881118 -6.04386979 0.8052937 -23.25390625 -5.3203125 C-37.01184667 -8.22414009 -51.30679513 -5.78735297 -63.3203125 1.46484375 C-73.01702645 8.05860924 -80.4802213 15.44525408 -86.09765625 25.8203125 C-86.8246875 26.89539063 -86.8246875 26.89539063 -87.56640625 27.9921875 C-88.55640625 27.9921875 -89.54640625 27.9921875 -90.56640625 27.9921875 C-90.11383874 22.75987191 -88.18534242 19.31560656 -85.12890625 15.1796875 C-84.6793457 14.56657715 -84.22978516 13.9534668 -83.76660156 13.32177734 C-74.96040801 1.63651772 -62.13523576 -8.27545927 -47.62109375 -11.61328125 C-30.28700494 -13.852083 -14.23234081 -10.6116333 0 0 Z " fill="#166FA4" transform="translate(291.56640625,128.0078125)"/>
<path d="M0 0 C1.46009953 2.92019905 0.30360315 4.89154321 -0.63793945 7.86499023 C-7.45117525 28.1881965 -18.45278455 46.10089449 -38 56.3125 C-39.98791801 57.23483364 -41.98740672 58.13282894 -44 59 C-44.76441406 59.34160156 -45.52882813 59.68320312 -46.31640625 60.03515625 C-60.06071287 65.17433177 -75.80248013 62.39865281 -88.81640625 56.78515625 C-101.35177659 50.63337422 -111.24140806 40.10446157 -118 28 C-118.73828125 25.1171875 -118.73828125 25.1171875 -119 23 C-118.01 22.67 -117.02 22.34 -116 22 C-115.52691406 22.75023437 -115.05382812 23.50046875 -114.56640625 24.2734375 C-105.22911351 38.7253097 -94.52619527 50.30149968 -77.42578125 55.375 C-61.81169587 58.22363587 -46.82921671 56.04751266 -33.62109375 46.9609375 C-24.13451348 39.86367477 -17.87832313 32.15116877 -12 22 C-11.39744385 20.96190186 -11.39744385 20.96190186 -10.78271484 19.90283203 C-7.00658012 13.3574327 -3.33002133 6.78570384 0 0 Z " fill="#166EA4" transform="translate(320,221)"/>
<path d="M0 0 C2.62561109 -0.08074203 5.24875676 -0.1403623 7.875 -0.1875 C8.99455078 -0.22520508 8.99455078 -0.22520508 10.13671875 -0.26367188 C12.3046875 -0.29296875 12.3046875 -0.29296875 16 0 C18.47595602 3.71393402 18.20717286 5.64799145 18.125 10.0625 C18.10695313 11.31160156 18.08890625 12.56070312 18.0703125 13.84765625 C18.04710938 14.88792969 18.02390625 15.92820312 18 17 C18 18.79051799 18.03297494 20.58096511 18.0703125 22.37109375 C18.08893516 23.72655715 18.10714804 25.08202623 18.125 26.4375 C18.14175781 27.11876953 18.15851563 27.80003906 18.17578125 28.50195312 C18.21241646 32.24240782 18.13080526 33.80379211 16 37 C13.2114711 37.22107787 10.65346819 37.28107535 7.875 37.1875 C6.74384766 37.16719727 6.74384766 37.16719727 5.58984375 37.14648438 C3.72625873 37.11109985 1.86304022 37.05729167 0 37 C0 24.66666667 0 12.33333333 0 0 Z " fill="#000102" transform="translate(100,310)"/>
<path d="M0 0 C1.15628906 0.00386719 2.31257812 0.00773437 3.50390625 0.01171875 C6.4375 0.3125 6.4375 0.3125 8.4375 2.3125 C8.61260386 4.96541757 8.66905483 7.51236174 8.6328125 10.1640625 C8.6299826 10.93809418 8.62715271 11.71212585 8.62423706 12.50961304 C8.61302754 14.98573157 8.58792203 17.4614905 8.5625 19.9375 C8.55247118 21.61457812 8.54334516 23.29166189 8.53515625 24.96875 C8.51308574 29.08347223 8.47855102 33.19792511 8.4375 37.3125 C6.9525 36.8175 6.9525 36.8175 5.4375 36.3125 C5.4375 31.0325 5.4375 25.7525 5.4375 20.3125 C1.4775 20.3125 -2.4825 20.3125 -6.5625 20.3125 C-6.5625 25.5925 -6.5625 30.8725 -6.5625 36.3125 C-7.5525 36.3125 -8.5425 36.3125 -9.5625 36.3125 C-9.63666067 31.66776018 -9.69110615 27.02336501 -9.72729492 22.37817383 C-9.74238094 20.79803464 -9.7628525 19.21793731 -9.78881836 17.63793945 C-9.82521126 15.36659415 -9.84222762 13.09580241 -9.85546875 10.82421875 C-9.87095261 10.11786789 -9.88643646 9.41151703 -9.90238953 8.6837616 C-9.90338334 5.78706422 -9.89472191 3.80001151 -8.23583984 1.36572266 C-5.55923248 -0.3189701 -3.11372117 -0.04522723 0 0 Z " fill="#396B9D" transform="translate(211.5625,309.6875)"/>
<path d="M0 0 C1.258125 -0.01675781 2.51625 -0.03351563 3.8125 -0.05078125 C4.864375 0.06910156 5.91625 0.18898438 7 0.3125 C9.42869909 3.95554864 9.25675675 6.61972339 9.1953125 10.82421875 C9.1924826 11.55244339 9.18965271 12.28066803 9.18673706 13.03096008 C9.17555257 15.35414137 9.15045166 17.67693547 9.125 20 C9.11496794 21.5761663 9.10584248 23.15233865 9.09765625 24.72851562 C9.07561896 28.58999267 9.04110141 32.45118071 9 36.3125 C8.01 36.3125 7.02 36.3125 6 36.3125 C6 31.0325 6 25.7525 6 20.3125 C2.04 20.3125 -1.92 20.3125 -6 20.3125 C-6 25.5925 -6 30.8725 -6 36.3125 C-6.99 36.3125 -7.98 36.3125 -9 36.3125 C-9.04936883 31.50701403 -9.08570443 26.70167506 -9.10986328 21.89599609 C-9.11993254 20.26055328 -9.13358881 18.62512851 -9.15087891 16.98974609 C-9.17508705 14.6415563 -9.18647357 12.29360412 -9.1953125 9.9453125 C-9.21079636 8.84523361 -9.21079636 8.84523361 -9.22659302 7.72293091 C-9.22699368 5.91787303 -9.12212755 4.1134217 -9 2.3125 C-6.12699457 -0.56050543 -3.9965678 0.01228453 0 0 Z " fill="#3F5891" transform="translate(326,309.6875)"/>
<path d="M0 0 C2.60478883 -0.0809313 5.20706653 -0.14045434 7.8125 -0.1875 C8.55048828 -0.21263672 9.28847656 -0.23777344 10.04882812 -0.26367188 C15.38026606 -0.33604434 15.38026606 -0.33604434 17.98828125 1.078125 C19.54515523 4.03558446 19.3958796 6.62112328 19.375 9.9375 C19.38273437 11.16339844 19.39046875 12.38929688 19.3984375 13.65234375 C18.97605065 17.20122154 18.72594404 18.69694874 16 21 C13.08203125 21.390625 13.08203125 21.390625 9.8125 21.25 C6.9353125 21.12625 6.9353125 21.12625 4 21 C4 25.29 4 29.58 4 34 C3.34 34 2.68 34 2 34 C1.67 34.99 1.34 35.98 1 37 C0.67 37 0.34 37 0 37 C0 24.66666667 0 12.33333333 0 0 Z " fill="#375385" transform="translate(290,310)"/>
<path d="M0 0 C5.28 0 10.56 0 16 0 C18.45281911 3.67922867 18.26823919 5.62259351 18.25 10 C18.25515625 11.2375 18.2603125 12.475 18.265625 13.75 C18 17 18 17 16 20 C12.9609375 20.29296875 12.9609375 20.29296875 9.375 20.1875 C8.18648437 20.16042969 6.99796875 20.13335937 5.7734375 20.10546875 C4.85820312 20.07066406 3.94296875 20.03585937 3 20 C3.03480469 20.98742187 3.06960937 21.97484375 3.10546875 22.9921875 C3.13253906 24.27351563 3.15960938 25.55484375 3.1875 26.875 C3.22230469 28.15117187 3.25710937 29.42734375 3.29296875 30.7421875 C3.19628906 31.81726563 3.09960938 32.89234375 3 34 C2.01 34.66 1.02 35.32 0 36 C0 24.12 0 12.24 0 0 Z " fill="#415490" transform="translate(176,310)"/>
<path d="M0 0 C5.28 0 10.56 0 16 0 C16.33 0.66 16.66 1.32 17 2 C16.67 2.66 16.34 3.32 16 4 C12.04 4 8.08 4 4 4 C4 7.96 4 11.92 4 16 C7.96 16 11.92 16 16 16 C16.33 16.99 16.66 17.98 17 19 C16.67 19.66 16.34 20.32 16 21 C12.04 21 8.08 21 4 21 C4 24.96 4 28.92 4 33 C7.96 33 11.92 33 16 33 C16 34.32 16 35.64 16 37 C10.72 37 5.44 37 0 37 C0 24.66666667 0 12.33333333 0 0 Z " fill="#385083" transform="translate(126,310)"/>
<path d="M0 0 C3.1875 -0.3984375 3.1875 -0.3984375 7 -0.375 C8.8871875 -0.38660156 8.8871875 -0.38660156 10.8125 -0.3984375 C11.864375 -0.26695312 12.91625 -0.13546875 14 0 C16.42869909 3.64304864 16.25675675 6.30722339 16.1953125 10.51171875 C16.1924826 11.23994339 16.18965271 11.96816803 16.18673706 12.71846008 C16.17555257 15.04164137 16.15045166 17.36443547 16.125 19.6875 C16.11496794 21.2636663 16.10584248 22.83983865 16.09765625 24.41601562 C16.07561896 28.27749267 16.04110141 32.13868071 16 36 C15.01 35.34 14.02 34.68 13 34 C12.65942383 31.01904297 12.65942383 31.01904297 12.70703125 27.2421875 C12.71127609 26.57913605 12.71552094 25.91608459 12.71989441 25.23294067 C12.73670029 23.11321559 12.77435299 20.99443812 12.8125 18.875 C12.82754451 17.43881581 12.84123332 16.00261672 12.85351562 14.56640625 C12.8866091 11.04396236 12.9384032 7.52207364 13 4 C11.68 4 10.36 4 9 4 C9 8.29 9 12.58 9 17 C7.68 17 6.36 17 5 17 C5 12.71 5 8.42 5 4 C3.68 4 2.36 4 1 4 C1.01571045 4.89831543 1.0314209 5.79663086 1.04760742 6.72216797 C1.09869255 10.05067692 1.13632785 13.37877027 1.16479492 16.70751953 C1.17989483 18.14899258 1.20037658 19.59041959 1.22631836 21.03173828 C1.2626513 23.10200343 1.27971329 25.17166207 1.29296875 27.2421875 C1.3086792 28.4885498 1.32438965 29.73491211 1.34057617 31.01904297 C1.22818604 32.00275879 1.1157959 32.98647461 1 34 C0.01 34.66 -0.98 35.32 -2 36 C-2.04944066 31.35524041 -2.08573863 26.71063404 -2.10986328 22.06567383 C-2.11992041 20.48556856 -2.13356785 18.9054819 -2.15087891 17.32543945 C-2.17514022 15.0541525 -2.18648582 12.78311164 -2.1953125 10.51171875 C-2.20563507 9.80536789 -2.21595764 9.09901703 -2.22659302 8.3712616 C-2.22743775 4.67802208 -2.10720523 3.16080784 0 0 Z " fill="#414E89" transform="translate(266,310)"/>
<path d="M0 0 C0.99 0 1.98 0 3 0 C4.98 4.29 6.96 8.58 9 13 C12.465 6.565 12.465 6.565 16 0 C16.66 0 17.32 0 18 0 C17.62791847 4.37195792 16.83511576 7.55949141 14.875 11.5 C12.890834 15.77971572 12.64933253 18.35708056 14 23 C14.99801729 25.05214801 16.06038717 27.05858706 17.14453125 29.06640625 C18.33551206 31.75834917 18.28941347 34.10586531 18 37 C17.34 37 16.68 37 16 37 C13.69 32.38 11.38 27.76 9 23 C6.69 27.62 4.38 32.24 2 37 C1.34 37 0.68 37 0 37 C0.37335489 31.27522503 2.17289719 27.38609491 5.0390625 22.4296875 C6.59166766 18.50399477 5.43327228 16.00149823 3.80859375 12.24609375 C2.89300329 10.37056799 1.97633273 8.49556913 1.05859375 6.62109375 C0 4 0 4 0 0 Z " fill="#3D538A" transform="translate(394,310)"/>
<path d="M0 0 C5.28 0 10.56 0 16 0 C16 0.99 16 1.98 16 3 C11.71 3 7.42 3 3 3 C3 7.62 3 12.24 3 17 C7.29 17 11.58 17 16 17 C16 17.99 16 18.98 16 20 C11.71 20 7.42 20 3 20 C3 24.29 3 28.58 3 33 C7.29 33 11.58 33 16 33 C16 34.32 16 35.64 16 37 C10.72 37 5.44 37 0 37 C0 24.79 0 12.58 0 0 Z " fill="#435A97" transform="translate(151,310)"/>
<path d="M0 0 C0.66 0.33 1.32 0.66 2 1 C2 5.29 2 9.58 2 14 C5.96 14 9.92 14 14 14 C14 9.71 14 5.42 14 1 C14.99 0.67 15.98 0.34 17 0 C17.05397335 2.4377963 17.09365616 4.87439685 17.125 7.3125 C17.15013672 8.34793945 17.15013672 8.34793945 17.17578125 9.40429688 C17.21217794 13.17135396 17.14378864 14.78431704 15 18 C12.2114711 18.22107787 9.65346819 18.28107535 6.875 18.1875 C5.74384766 18.16719727 5.74384766 18.16719727 4.58984375 18.14648438 C2.72625873 18.11109985 0.86304022 18.05729167 -1 18 C-1.02684312 15.18743719 -1.04676188 12.37512759 -1.0625 9.5625 C-1.07087891 8.76005859 -1.07925781 7.95761719 -1.08789062 7.13085938 C-1.0965143 5.08704779 -1.0522815 3.04316098 -1 1 C-0.67 0.67 -0.34 0.34 0 0 Z " fill="#2F95BB" transform="translate(101,329)"/>
<path d="M0 0 C2.59875 -0.061875 5.1975 -0.12375 7.875 -0.1875 C8.69210449 -0.21481201 9.50920898 -0.24212402 10.35107422 -0.27026367 C12.236076 -0.29217134 14.12076763 -0.14898777 16 0 C18.49118953 3.7367843 18.2065226 5.74451819 18.125 10.1875 C18.10695313 11.45980469 18.08890625 12.73210937 18.0703125 14.04296875 C18.04710938 15.01878906 18.02390625 15.99460937 18 17 C17.01 17 16.02 17 15 17 C15 12.71 15 8.42 15 4 C11.04 4 7.08 4 3 4 C3 8.29 3 12.58 3 17 C2.01 17 1.02 17 0 17 C0 11.39 0 5.78 0 0 Z " fill="#454D8D" transform="translate(100,310)"/>
<path d="M0 0 C3.96 0 7.92 0 12 0 C12 3.96 12 7.92 12 12 C8.04 12 4.08 12 0 12 C0 8.04 0 4.08 0 0 Z " fill="#010102" transform="translate(320,314)"/>
<path d="M0 0 C3.96 0 7.92 0 12 0 C12 3.96 12 7.92 12 12 C8.04 12 4.08 12 0 12 C0 8.04 0 4.08 0 0 Z " fill="#010103" transform="translate(205,314)"/>
<path d="M0 0 C3.96 0 7.92 0 12 0 C12 3.96 12 7.92 12 12 C8.04 12 4.08 12 0 12 C0 8.04 0 4.08 0 0 Z " fill="#000101" transform="translate(179,314)"/>
<path d="M0 0 C3.63 0 7.26 0 11 0 C11 3.96 11 7.92 11 12 C7.37 12 3.74 12 0 12 C0 8.04 0 4.08 0 0 Z " fill="#000000" transform="translate(294,314)"/>
<path d="M0 0 C5.61 0 11.22 0 17 0 C17.33 0.66 17.66 1.32 18 2 C17.67 2.66 17.34 3.32 17 4 C15.02 4.33 13.04 4.66 11 5 C11 9.62 11 14.24 11 19 C9.68 19 8.36 19 7 19 C7 14.38 7 9.76 7 5 C4.69 4.34 2.38 3.68 0 3 C0 2.01 0 1.02 0 0 Z " fill="#344574" transform="translate(368,310)"/>
<path d="M0 0 C0.66 0.33 1.32 0.66 2 1 C2 5.29 2 9.58 2 14 C6.29 14 10.58 14 15 14 C15 15.32 15 16.64 15 18 C12.89646505 18.0810206 10.79204048 18.13919907 8.6875 18.1875 C7.51574219 18.22230469 6.34398437 18.25710938 5.13671875 18.29296875 C2 18 2 18 0.09765625 16.93359375 C-1.60395584 13.93609203 -1.31996795 11.28243928 -1.25 7.875 C-1.23453125 6.61429687 -1.2190625 5.35359375 -1.203125 4.0546875 C-1 1 -1 1 0 0 Z " fill="#2C8EB3" transform="translate(344,329)"/>
<path d="M0 0 C3.2578125 -0.29296875 3.2578125 -0.29296875 7.125 -0.1875 C9.04699219 -0.14689453 9.04699219 -0.14689453 11.0078125 -0.10546875 C11.99523437 -0.07066406 12.98265625 -0.03585937 14 0 C13.67 1.32 13.34 2.64 13 4 C9.04 4 5.08 4 1 4 C1 8.29 1 12.58 1 17 C0.01 17 -0.98 17 -2 17 C-2.05398987 14.72942623 -2.09278742 12.45848712 -2.125 10.1875 C-2.14820313 8.92292969 -2.17140625 7.65835937 -2.1953125 6.35546875 C-2 3 -2 3 0 0 Z " fill="#463E7F" transform="translate(345,310)"/>
<path d="M0 0 C0.33 0 0.66 0 1 0 C1 4.29 1 8.58 1 13 C5.29 13 9.58 13 14 13 C14 14.32 14 15.64 14 17 C8.72 17 3.44 17 -2 17 C-1.855625 14.380625 -1.71125 11.76125 -1.5625 9.0625 C-1.51939697 8.2362915 -1.47629395 7.41008301 -1.43188477 6.55883789 C-1.11111111 1.11111111 -1.11111111 1.11111111 0 0 Z " fill="#2C93B7" transform="translate(153,330)"/>
<path d="M0 0 C0.33 0 0.66 0 1 0 C1 4.29 1 8.58 1 13 C5.29 13 9.58 13 14 13 C14 14.32 14 15.64 14 17 C9.05 17 4.1 17 -1 17 C-1.02684679 14.35409986 -1.04676357 11.70846904 -1.0625 9.0625 C-1.07087891 8.30775391 -1.07925781 7.55300781 -1.08789062 6.77539062 C-1.09652441 4.85005687 -1.05224333 2.92464419 -1 1 C-0.67 0.67 -0.34 0.34 0 0 Z " fill="#2C93B7" transform="translate(128,330)"/>
<path d="M0 0 C1.76923828 0.04060547 1.76923828 0.04060547 3.57421875 0.08203125 C4.47785156 0.11683594 5.38148438 0.15164063 6.3125 0.1875 C6.9725 1.5075 7.6325 2.8275 8.3125 4.1875 C7.6525 4.1875 6.9925 4.1875 6.3125 4.1875 C6.3125 8.1475 6.3125 12.1075 6.3125 16.1875 C5.9825 16.1875 5.6525 16.1875 5.3125 16.1875 C5.3125 12.2275 5.3125 8.2675 5.3125 4.1875 C1.0225 4.1875 -3.2675 4.1875 -7.6875 4.1875 C-8.0175 6.1675 -8.3475 8.1475 -8.6875 10.1875 C-9.0175 10.1875 -9.3475 10.1875 -9.6875 10.1875 C-10.05136139 3.75928218 -10.05136139 3.75928218 -8.59375 1.46875 C-5.74614657 -0.44521296 -3.38378509 -0.10050847 0 0 Z " fill="#44407F" transform="translate(211.6875,309.8125)"/>
<path d="M0 0 C0.99 0.33 1.98 0.66 3 1 C3 6.28 3 11.56 3 17 C1.68 17 0.36 17 -1 17 C-1.02684679 14.35409986 -1.04676357 11.70846904 -1.0625 9.0625 C-1.07087891 8.30775391 -1.07925781 7.55300781 -1.08789062 6.77539062 C-1.09652441 4.85005687 -1.05224333 2.92464419 -1 1 C-0.67 0.67 -0.34 0.34 0 0 Z " fill="#297193" transform="translate(229,329)"/>
<path d="M0 0 C0.99 0.33 1.98 0.66 3 1 C3 6.28 3 11.56 3 17 C1.68 17 0.36 17 -1 17 C-1.02684679 14.35409986 -1.04676357 11.70846904 -1.0625 9.0625 C-1.07087891 8.30775391 -1.07925781 7.55300781 -1.08789062 6.77539062 C-1.09652441 4.85005687 -1.05224333 2.92464419 -1 1 C-0.67 0.67 -0.34 0.34 0 0 Z " fill="#39467A" transform="translate(229,310)"/>
<path d="M0 0 C0.66 0 1.32 0 2 0 C1.44380331 4.6889493 0.11817327 8.19924267 -2.0625 12.375 C-2.61035156 13.43460937 -3.15820312 14.49421875 -3.72265625 15.5859375 C-4.14417969 16.38257813 -4.56570313 17.17921875 -5 18 C-5.66 18 -6.32 18 -7 18 C-6.68978386 11.02013687 -3.5048042 5.92708478 0 0 Z " fill="#2F83AB" transform="translate(401,329)"/>
<path d="M0 0 C0.99 0.33 1.98 0.66 3 1 C3 5.62 3 10.24 3 15 C1.68 15 0.36 15 -1 15 C-1.02685412 12.68756208 -1.04632841 10.3750373 -1.0625 8.0625 C-1.07410156 6.77472656 -1.08570313 5.48695313 -1.09765625 4.16015625 C-1 1 -1 1 0 0 Z " fill="#277192" transform="translate(376,331)"/>
<path d="M0 0 C0.66 0 1.32 0 2 0 C3.01501998 1.86691174 4.01142079 3.74395344 5 5.625 C5.556875 6.66914063 6.11375 7.71328125 6.6875 8.7890625 C8.0578255 12.14146595 8.2580505 14.41954936 8 18 C7.34 18 6.68 18 6 18 C4.98819502 15.94326547 3.99098523 13.87934652 3 11.8125 C2.443125 10.66394531 1.88625 9.51539063 1.3125 8.33203125 C0.08236325 5.20909481 -0.29804612 3.29713518 0 0 Z " fill="#2F82AA" transform="translate(404,329)"/>
<path d="M0 0 C1.27617187 0.02320313 2.55234375 0.04640625 3.8671875 0.0703125 C5.78917969 0.09738281 5.78917969 0.09738281 7.75 0.125 C9.23113281 0.15980469 9.23113281 0.15980469 10.7421875 0.1953125 C10.7421875 0.5253125 10.7421875 0.8553125 10.7421875 1.1953125 C4.3071875 1.6903125 4.3071875 1.6903125 -2.2578125 2.1953125 C-2.2578125 6.8153125 -2.2578125 11.4353125 -2.2578125 16.1953125 C-3.2478125 16.5253125 -4.2378125 16.8553125 -5.2578125 17.1953125 C-5.31165098 14.73668849 -5.35140288 12.279237 -5.3828125 9.8203125 C-5.39957031 9.12164062 -5.41632813 8.42296875 -5.43359375 7.703125 C-5.45125517 5.86633764 -5.36084511 4.02929287 -5.2578125 2.1953125 C-3.2578125 0.1953125 -3.2578125 0.1953125 0 0 Z " fill="#454E8D" transform="translate(322.2578125,309.8046875)"/>
<path d="M0 0 C0.66 0 1.32 0 2 0 C2 4.95 2 9.9 2 15 C-2.95 15 -7.9 15 -13 15 C-13 14.67 -13 14.34 -13 14 C-9.04 14 -5.08 14 -1 14 C-1.01160156 13.07316406 -1.02320312 12.14632813 -1.03515625 11.19140625 C-1.04417969 9.99386719 -1.05320312 8.79632813 -1.0625 7.5625 C-1.07410156 6.36753906 -1.08570312 5.17257812 -1.09765625 3.94140625 C-1 1 -1 1 0 0 Z " fill="#2E81A8" transform="translate(116,329)"/>
<path d="M0 0 C5.61 0 11.22 0 17 0 C17 0.99 17 1.98 17 3 C11.39 3 5.78 3 0 3 C0 2.01 0 1.02 0 0 Z " fill="#4D4189" transform="translate(368,310)"/>
<path d="M0 0 C0.99 0.33 1.98 0.66 3 1 C3 6.28 3 11.56 3 17 C2.01 17 1.02 17 0 17 C0 11.39 0 5.78 0 0 Z " fill="#445493" transform="translate(253,310)"/>
<path d="M0 0 C0.66 0.33 1.32 0.66 2 1 C2 6.28 2 11.56 2 17 C1.01 17 0.02 17 -1 17 C-1.02684679 14.35409986 -1.04676357 11.70846904 -1.0625 9.0625 C-1.07087891 8.30775391 -1.07925781 7.55300781 -1.08789062 6.77539062 C-1.09652441 4.85005687 -1.05224333 2.92464419 -1 1 C-0.67 0.67 -0.34 0.34 0 0 Z " fill="#3189B3" transform="translate(254,329)"/>
<path d="M0 0 C0.99 0 1.98 0 3 0 C3 5.28 3 10.56 3 16 C2.01 16 1.02 16 0 16 C0 10.72 0 5.44 0 0 Z " fill="#3087B0" transform="translate(317,330)"/>
<path d="M0 0 C0 5.28 0 10.56 0 16 C-0.99 16 -1.98 16 -3 16 C-3 11.05 -3 6.1 -3 1 C-1 0 -1 0 0 0 Z " fill="#318AB3" transform="translate(205,330)"/>
<path d="M0 0 C0.66 0.33 1.32 0.66 2 1 C2.08075665 3.29109597 2.13907731 5.58299267 2.1875 7.875 C2.22230469 9.15117187 2.25710938 10.42734375 2.29296875 11.7421875 C2.19628906 12.81726563 2.09960938 13.89234375 2 15 C1.01 15.66 0.02 16.32 -1 17 C-1.02684679 14.35409986 -1.04676357 11.70846904 -1.0625 9.0625 C-1.07087891 8.30775391 -1.07925781 7.55300781 -1.08789062 6.77539062 C-1.09652441 4.85005687 -1.05224333 2.92464419 -1 1 C-0.67 0.67 -0.34 0.34 0 0 Z " fill="#338AB5" transform="translate(265,329)"/>
<path d="M0 0 C0.66 0 1.32 0 2 0 C2 4.95 2 9.9 2 15 C1.01 15 0.02 15 -1 15 C-1.02685412 12.68756208 -1.04632841 10.3750373 -1.0625 8.0625 C-1.07410156 6.77472656 -1.08570313 5.48695313 -1.09765625 4.16015625 C-1 1 -1 1 0 0 Z " fill="#318CB5" transform="translate(333,331)"/>
<path d="M0 0 C0.99 0 1.98 0 3 0 C3.08075665 2.29109597 3.13907731 4.58299267 3.1875 6.875 C3.22230469 8.15117187 3.25710937 9.42734375 3.29296875 10.7421875 C3.19628906 11.81726563 3.09960938 12.89234375 3 14 C2.01 14.66 1.02 15.32 0 16 C0 10.72 0 5.44 0 0 Z " fill="#3186B0" transform="translate(176,330)"/>
<path d="M0 0 C0.66 0 1.32 0 2 0 C2 4.95 2 9.9 2 15 C1.01 14.34 0.02 13.68 -1 13 C-1.328125 10.21484375 -1.328125 10.21484375 -1.25 6.9375 C-1.23453125 5.85339844 -1.2190625 4.76929688 -1.203125 3.65234375 C-1 1 -1 1 0 0 Z " fill="#328BB5" transform="translate(280,331)"/>
<path d="M0 0 C0.33 0 0.66 0 1 0 C1 4.62 1 9.24 1 14 C0.01 14 -0.98 14 -2 14 C-2.05437607 12.41705218 -2.09296271 10.83355744 -2.125 9.25 C-2.14820313 8.36828125 -2.17140625 7.4865625 -2.1953125 6.578125 C-1.99139502 3.8864142 -1.36551721 2.30095026 0 0 Z " fill="#435A97" transform="translate(345,313)"/>
<path d="M0 0 C0.66 0 1.32 0 2 0 C1.25 6.625 1.25 6.625 -1 10 C-1.99 10 -2.98 10 -4 10 C-2.8905928 6.51329166 -1.73662334 3.22515763 0 0 Z " fill="#464888" transform="translate(410,310)"/>
<path d="M0 0 C1.34780093 2.69560185 0.67336458 3.742617 -0.25 6.5625 C-0.50265625 7.36816406 -0.7553125 8.17382812 -1.015625 9.00390625 C-1.34046875 9.66261719 -1.6653125 10.32132813 -2 11 C-2.99 11.33 -3.98 11.66 -5 12 C-4.54738642 10.56068883 -4.08767021 9.12361001 -3.625 7.6875 C-3.24214844 6.48673828 -3.24214844 6.48673828 -2.8515625 5.26171875 C-2 3 -2 3 0 0 Z " fill="#2499AE" transform="translate(320,221)"/>
</svg>
